<svg xmlns="http://www.w3.org/2000/svg" width="768" height="384" viewBox="0 0 768 384"><defs><pattern id="p" width="128" height="128" patternUnits="userSpaceOnUse"><g fill="#11130F" transform="translate(5 5)"><path d="M32 7C28 25 25 28 7 32c18 4 21 7 25 25 4-18 7-21 25-25C39 28 36 25 32 7Z"/></g><ellipse cx="37" cy="38" rx="32" ry="11" transform="rotate(-24 37 38)" fill="none" stroke="#11130F" stroke-width="3"/><g fill="#11130F" transform="translate(72 72) scale(.6)"><path d="M32 7C28 25 25 28 7 32c18 4 21 7 25 25 4-18 7-21 25-25C39 28 36 25 32 7Z"/></g></pattern></defs><rect width="768" height="384" fill="#D7FF00"/><rect width="768" height="384" fill="url(#p)"/></svg>